<svg xmlns="http://www.w3.org/2000/svg" xmlns:xlink="http://www.w3.org/1999/xlink" width="100" height="100" viewBox="0 0 100 100">
  <defs>
    <clipPath id="clip-path">
      <rect id="Rectangle_1598" data-name="Rectangle 1598" width="100" height="100" transform="translate(0 0.195)" fill="none"/>
    </clipPath>
    <clipPath id="clip-Artboard_12">
      <rect width="100" height="100"/>
    </clipPath>
  </defs>
  <g id="Artboard_12" data-name="Artboard – 12" clip-path="url(#clip-Artboard_12)">
    <g id="Group_37" data-name="Group 37" transform="translate(0 -0.195)">
      <g id="Group_36" data-name="Group 36" clip-path="url(#clip-path)">
        <path id="Path_38037" data-name="Path 38037" d="M50.129,0a50,50,0,1,0,50,50,50,50,0,0,0-50-50M77.4,72.107l-4.965,4.96L61.462,66.105H39.23L27.824,77.5l-4.965-4.961,6.44-6.434H22.88V27.554l-.094-.094.094-.094V22.633h4.738l.133-.133.133.133H66.352v6.45l6.156-6.151,4.964,4.961L66.352,39V61.068Z" fill="#fda11e"/>
        <path id="Path_38038" data-name="Path 38038" d="M22.88,27.554V66.105H29.3L45.381,50.039Z" fill="#fda11e"/>
        <path id="Path_38039" data-name="Path 38039" d="M22.88,22.633v4.733l4.738-4.733Z" fill="#fda11e"/>
        <path id="Path_38040" data-name="Path 38040" d="M66.352,29.083v-6.45H27.884L50.346,45.075Z" fill="#fda11e"/>
        <path id="Path_38041" data-name="Path 38041" d="M39.23,66.105H61.462L50.346,55Z" fill="#fda11e"/>
        <path id="Path_38042" data-name="Path 38042" d="M55.311,50.036,66.352,61.068V39Z" fill="#fda11e"/>
        <path id="Path_38043" data-name="Path 38043" d="M22.786,27.46l.094.094v-.188Z" fill="#040405"/>
        <path id="Path_38044" data-name="Path 38044" d="M27.751,22.5l-.133.133h.266Z" fill="#040405"/>
      </g>
    </g>
  </g>
</svg>
