<svg id="Layer_1" data-name="Layer 1" xmlns="http://www.w3.org/2000/svg" viewBox="0 0 493.5 619.75"><defs><style>.cls-1,.cls-5{fill:#f9b333;}.cls-1{stroke:#f9b333;stroke-miterlimit:10;stroke-width:2px;}.cls-2{fill:#1d4d9d;}.cls-3{fill:#ce4793;}.cls-4{fill:#fff;}</style></defs><path class="cls-1" d="M378.23,618a79.51,79.51,0,0,0,13.84-32.3c1.86-10.48,3.73-21-2.77-26.75-5.73-5.08-16.48-5.15-22.15,0-5.9,5.36-4.4,14.69-2.76,24.91A84.34,84.34,0,0,0,378.23,618Z"/><circle class="cls-2" cx="246.75" cy="246.75" r="245.75"/><path class="cls-3" d="M246.75,493.5A246.75,246.75,0,0,1,72.27,72.27a246.75,246.75,0,0,1,349,349A245.11,245.11,0,0,1,246.75,493.5Zm0-491.5A244.75,244.75,0,0,0,73.69,419.82,244.75,244.75,0,0,0,419.82,73.69,243.15,243.15,0,0,0,246.75,2Z"/><rect class="cls-3" x="245.75" y="1" width="2" height="491.5"/><line class="cls-4" x1="1" y1="246.75" x2="492.5" y2="246.75"/><rect class="cls-3" x="1" y="245.75" width="491.5" height="2"/><line class="cls-4" x1="52.51" y1="397.3" x2="440.99" y2="96.2"/><rect class="cls-3" x="1" y="245.75" width="491.5" height="2" transform="translate(-99.46 203.01) rotate(-37.8)"/><line class="cls-4" x1="66.27" y1="79.42" x2="426.24" y2="414.08"/><rect class="cls-3" x="245.25" y="1" width="2" height="491.5" transform="translate(-102.14 259.09) rotate(-47.09)"/><path class="cls-5" d="M346.45,215a2.45,2.45,0,0,1,1.58.53,7.32,7.32,0,0,1,1.41,2.94,7.85,7.85,0,0,1,.5,2.91,3.07,3.07,0,0,1-.93,2,5.93,5.93,0,0,1-2.41,1.35,5.82,5.82,0,0,1-3,.3,3,3,0,0,1-1.81-1,10.19,10.19,0,0,1-1.3-2.91l-.39-1.19,3.76-1.22.79,2.45a3.94,3.94,0,0,0,.52,1.2.53.53,0,0,0,.6.1.6.6,0,0,0,.47-.52,6.78,6.78,0,0,0-.43-1.79l-.34-1a3.28,3.28,0,0,0-.6-1.21,1,1,0,0,0-.75-.33,6.4,6.4,0,0,0-1.52.33l-.71-2.18a7.83,7.83,0,0,0,1.62-.64.74.74,0,0,0,.31-.59,3.2,3.2,0,0,0-.21-1.13l-.27-.83a2.18,2.18,0,0,0-.5-1,.68.68,0,0,0-1,.35A2.87,2.87,0,0,0,342,213l.4,1.23-3.75,1.22-.42-1.29c-.46-1.43-.45-2.51,0-3.23a5.39,5.39,0,0,1,2.89-1.77c1.79-.58,3.12-.62,4-.13a4.37,4.37,0,0,1,1.9,2.61,3.82,3.82,0,0,1,.25,1.93A3.25,3.25,0,0,1,346.45,215Z"/><path class="cls-5" d="M357.88,209.71l1.63,5a12.79,12.79,0,0,1,.62,2.55,3.74,3.74,0,0,1-.3,1.71,3.53,3.53,0,0,1-1.1,1.43,5.56,5.56,0,0,1-1.75.9,7.12,7.12,0,0,1-2.34.41,3.18,3.18,0,0,1-1.74-.51,4.55,4.55,0,0,1-1.2-1.15,9,9,0,0,1-1-2.24l-1.7-5.25a10.74,10.74,0,0,1-.65-3.22,3.21,3.21,0,0,1,.89-2.11,5.21,5.21,0,0,1,2.37-1.46,5.8,5.8,0,0,1,2.36-.29,3.86,3.86,0,0,1,1.79.59,3.61,3.61,0,0,1,1.11,1.19A12.84,12.84,0,0,1,357.88,209.71Zm-4.16,0a6.26,6.26,0,0,0-.6-1.47.54.54,0,0,0-.64-.12.56.56,0,0,0-.45.5,5.08,5.08,0,0,0,.34,1.52l2.38,7.34a5.36,5.36,0,0,0,.64,1.54.57.57,0,0,0,.63.09.55.55,0,0,0,.44-.49,4.79,4.79,0,0,0-.33-1.46Z"/><path class="cls-5" d="M368.08,206.41l1.63,5a12.79,12.79,0,0,1,.62,2.55,3.67,3.67,0,0,1-.3,1.7,3.48,3.48,0,0,1-1.1,1.44,5.76,5.76,0,0,1-1.75.89,7.44,7.44,0,0,1-2.34.42,3.35,3.35,0,0,1-1.74-.51,4.55,4.55,0,0,1-1.2-1.15,9.39,9.39,0,0,1-1-2.24l-1.7-5.25a10.74,10.74,0,0,1-.65-3.22,3.23,3.23,0,0,1,.89-2.12,5.25,5.25,0,0,1,2.37-1.45,5.64,5.64,0,0,1,2.36-.29,4,4,0,0,1,1.8.58,3.87,3.87,0,0,1,1.11,1.2A13.71,13.71,0,0,1,368.08,206.41Zm-4.16,0a5.92,5.92,0,0,0-.6-1.46.54.54,0,0,0-.64-.13.57.57,0,0,0-.45.5,5.18,5.18,0,0,0,.34,1.53l2.38,7.34a5.85,5.85,0,0,0,.64,1.54.57.57,0,0,0,.63.09.54.54,0,0,0,.44-.49,4.89,4.89,0,0,0-.33-1.47Z"/><path class="cls-5" d="M375.83,201.27l.29,1.11a3.53,3.53,0,0,1,.79-1.34,2.76,2.76,0,0,1,1.21-.75,2.56,2.56,0,0,1,1.66,0,2.06,2.06,0,0,1,1.15.82,10.09,10.09,0,0,1,.83,2l1.68,5.19a10.63,10.63,0,0,1,.58,2.46,2.06,2.06,0,0,1-.46,1.4,2.9,2.9,0,0,1-2.75,1,3.82,3.82,0,0,1-1.4-.62l.92,2.83-3.75,1.21L372,202.51Zm2.23,3.24a6,6,0,0,0-.53-1.35c-.11-.15-.29-.18-.54-.1a.48.48,0,0,0-.39.44,5.28,5.28,0,0,0,.33,1.38l1.65,5.11a5.05,5.05,0,0,0,.57,1.36.48.48,0,0,0,.57.12c.24-.08.36-.21.37-.4a5.33,5.33,0,0,0-.32-1.27Z"/><path class="cls-5" d="M391.78,200.89l1,3a12.86,12.86,0,0,1,.62,2.49,3.51,3.51,0,0,1-.24,1.68,3.35,3.35,0,0,1-1.09,1.45,5.88,5.88,0,0,1-1.87,1,7.24,7.24,0,0,1-2.2.41,2.94,2.94,0,0,1-1.61-.39,3.4,3.4,0,0,1-1.11-1.12,10.14,10.14,0,0,1-1-2.29l-1-3.15a8.16,8.16,0,0,1-.5-2.81,3.22,3.22,0,0,1,.84-2,4.9,4.9,0,0,1,2.28-1.39,6.07,6.07,0,0,1,2.29-.33,3.64,3.64,0,0,1,1.71.53,3.69,3.69,0,0,1,1.08,1A8.07,8.07,0,0,1,391.78,200.89Zm-4,.29a4.17,4.17,0,0,0-.49-1.16.54.54,0,0,0-.88.28,4.06,4.06,0,0,0,.27,1.23l1.81,5.57a3.34,3.34,0,0,0,.48,1.1.45.45,0,0,0,.52.12.45.45,0,0,0,.36-.38,3.38,3.38,0,0,0-.23-1.08Z"/><path class="cls-5" d="M394.6,192.2l.64,2-3.87,1.25-.63-2Zm.88,2.71,4,12.33-3.86,1.25-4-12.33Z"/><path class="cls-5" d="M400.65,193.24l.3,1.15a3,3,0,0,1,.67-1.34,2.9,2.9,0,0,1,1.25-.78,2.72,2.72,0,0,1,1.73-.06,2.19,2.19,0,0,1,1.16.9,10.8,10.8,0,0,1,.92,2.25l2.8,8.64-3.75,1.21L403,196.68a8.8,8.8,0,0,0-.58-1.53.45.45,0,0,0-.56-.13.5.5,0,0,0-.4.49,8.78,8.78,0,0,0,.46,1.74l2.7,8.34-3.76,1.21-4-12.33Z"/><path class="cls-5" d="M410.21,188.33l.62,1.94,1-.33.63,1.95-1,.33,2.13,6.59a3.51,3.51,0,0,0,.57,1.32c.11.07.47,0,1.09-.2l.64,2-1.51.49a11.6,11.6,0,0,1-1.87.49,2.16,2.16,0,0,1-1.12-.18,1.69,1.69,0,0,1-.81-.72,17.9,17.9,0,0,1-.86-2.3l-2-6.26-.8.26-.64-1.95.81-.26-.63-2Z"/><path class="cls-5" d="M347.11,280.07l-5.62,8.67.94.61L341,291.61,340,291l-1.51,2.34-3.31-2.15,1.51-2.34-3.93-2.55,1.46-2.26,8.49-6.81Zm-8.93,6.52,3.66-5.64-5.13,4.7Z"/><path class="cls-5" d="M353.64,290.68l-2.87,4.43a13.71,13.71,0,0,1-1.59,2.09,3.53,3.53,0,0,1-1.52.84,3.44,3.44,0,0,1-1.8.06,5.7,5.7,0,0,1-1.8-.8,7.35,7.35,0,0,1-1.8-1.55,3.31,3.31,0,0,1-.7-1.67,4.53,4.53,0,0,1,.14-1.66,8.94,8.94,0,0,1,1.12-2.17l3-4.63a10.39,10.39,0,0,1,2.09-2.53,3.2,3.2,0,0,1,2.2-.65,5.28,5.28,0,0,1,2.63.93,5.81,5.81,0,0,1,1.7,1.64,3.82,3.82,0,0,1,.68,1.77,3.68,3.68,0,0,1-.22,1.61A13.39,13.39,0,0,1,353.64,290.68Zm-2.59-3.26a5.75,5.75,0,0,0,.75-1.39.52.52,0,0,0-.3-.57.58.58,0,0,0-.67,0,5,5,0,0,0-1,1.23l-4.2,6.48a5.63,5.63,0,0,0-.79,1.46.57.57,0,0,0,.32.55.56.56,0,0,0,.67,0,5,5,0,0,0,.93-1.18Z"/><path class="cls-5" d="M362.63,296.52l-2.87,4.42a11.7,11.7,0,0,1-1.59,2.09,3.61,3.61,0,0,1-1.51.85,3.55,3.55,0,0,1-1.8.05,5.66,5.66,0,0,1-1.8-.79,7.39,7.39,0,0,1-1.8-1.56,3.19,3.19,0,0,1-.7-1.67,4.27,4.27,0,0,1,.13-1.65,9.48,9.48,0,0,1,1.13-2.18l3-4.62a10.72,10.72,0,0,1,2.09-2.54,3.23,3.23,0,0,1,2.2-.64,5.32,5.32,0,0,1,2.63.92,5.64,5.64,0,0,1,1.71,1.65,4,4,0,0,1,.68,1.76,3.61,3.61,0,0,1-.23,1.62A13.43,13.43,0,0,1,362.63,296.52ZM360,293.26a6.15,6.15,0,0,0,.76-1.39.54.54,0,0,0-.31-.58.56.56,0,0,0-.67,0,4.84,4.84,0,0,0-1,1.23l-4.2,6.47a5.46,5.46,0,0,0-.79,1.46.55.55,0,0,0,.32.55.56.56,0,0,0,.66,0,4.92,4.92,0,0,0,.93-1.18Z"/><path class="cls-5" d="M371.5,299.29l-.68.93a3.61,3.61,0,0,1,1.54-.24,2.81,2.81,0,0,1,1.35.47,2.59,2.59,0,0,1,1.07,1.28,2.08,2.08,0,0,1,.08,1.4,9.77,9.77,0,0,1-1.05,1.93l-3,4.58a10.6,10.6,0,0,1-1.55,2,2.13,2.13,0,0,1-1.37.53,2.73,2.73,0,0,1-1.55-.48,2.87,2.87,0,0,1-1-1,3.71,3.71,0,0,1-.4-1.47l-1.62,2.49-3.31-2.15,8.06-12.42Zm-1.1,3.78a6.58,6.58,0,0,0,.71-1.27q.08-.26-.27-.48a.48.48,0,0,0-.58,0,5.19,5.19,0,0,0-.86,1.13l-2.93,4.51a5.73,5.73,0,0,0-.7,1.29.49.49,0,0,0,.27.52.43.43,0,0,0,.54,0,4.79,4.79,0,0,0,.79-1Z"/><path class="cls-5" d="M381.86,311.43l-1.73,2.67a13.08,13.08,0,0,1-1.54,2,3.63,3.63,0,0,1-1.46.87,3.36,3.36,0,0,1-1.81.07,5.93,5.93,0,0,1-1.92-.84,7.57,7.57,0,0,1-1.71-1.45,3,3,0,0,1-.71-1.5,3.42,3.42,0,0,1,.16-1.57,10.5,10.5,0,0,1,1.17-2.19l1.81-2.79A7.85,7.85,0,0,1,376,304.6a3.27,3.27,0,0,1,2.07-.61,5,5,0,0,1,2.51.9,5.92,5.92,0,0,1,1.7,1.57,3.66,3.66,0,0,1,.67,1.67,3.76,3.76,0,0,1-.11,1.48A8.15,8.15,0,0,1,381.86,311.43Zm-2.78-3a4.29,4.29,0,0,0,.59-1.11.43.43,0,0,0-.24-.47.46.46,0,0,0-.53,0,4,4,0,0,0-.79,1l-3.18,4.91a3.63,3.63,0,0,0-.55,1.07.45.45,0,0,0,.23.48.46.46,0,0,0,.53,0,3.55,3.55,0,0,0,.69-.86Z"/><path class="cls-5" d="M388.83,310.53l-7.05,10.88-3.41-2.21,7.06-10.88Zm1.56-2.39-1.13,1.73-3.4-2.21,1.12-1.73Z"/><path class="cls-5" d="M393.39,313.49l-.71,1a3,3,0,0,1,1.47-.32,2.78,2.78,0,0,1,1.39.47,2.68,2.68,0,0,1,1.13,1.31,2.1,2.1,0,0,1,0,1.46,11.11,11.11,0,0,1-1.16,2.14l-4.94,7.62L387.3,325l4.88-7.53A7.71,7.71,0,0,0,393,316c.06-.2,0-.37-.25-.51a.47.47,0,0,0-.62,0,8.91,8.91,0,0,0-1.07,1.45l-4.77,7.35L383,322.18l7-10.88Z"/><path class="cls-5" d="M403.23,317.81l-1.11,1.71.89.58-1.12,1.72-.89-.58-3.77,5.82a3.63,3.63,0,0,0-.67,1.27q0,.19.84.72l-1.13,1.75-1.34-.87a10.14,10.14,0,0,1-1.55-1.14,2.07,2.07,0,0,1-.57-1,1.79,1.79,0,0,1,0-1.08,16.88,16.88,0,0,1,1.25-2.12l3.58-5.52-.71-.46,1.12-1.72.71.46,1.11-1.71Z"/><path class="cls-5" d="M194.87,154.78l14.61-6,1.51,3.64-7.84,3.23a14.17,14.17,0,0,0-2,.93.83.83,0,0,0-.34.66,4.91,4.91,0,0,0,.5,1.7l.15.36-1.71.71a7.16,7.16,0,0,0-4-3.06Z"/><path class="cls-5" d="M195.68,142.71l4.87-2a13.11,13.11,0,0,1,2.5-.82,3.67,3.67,0,0,1,1.72.17,3.51,3.51,0,0,1,1.52,1,5.68,5.68,0,0,1,1,1.68,7,7,0,0,1,.59,2.3,3.16,3.16,0,0,1-.37,1.77,4.34,4.34,0,0,1-1,1.29,8.84,8.84,0,0,1-2.16,1.14l-5.1,2.11a10.56,10.56,0,0,1-3.16.89,3.21,3.21,0,0,1-2.18-.71,5.36,5.36,0,0,1-1.63-2.26,5.66,5.66,0,0,1-.47-2.32,3.82,3.82,0,0,1,.44-1.84,3.61,3.61,0,0,1,1.1-1.2A13.53,13.53,0,0,1,195.68,142.71Zm.28,4.16a6,6,0,0,0-1.41.71.54.54,0,0,0-.08.65.56.56,0,0,0,.53.41,5.19,5.19,0,0,0,1.5-.46l7.13-3a5.78,5.78,0,0,0,1.48-.75.57.57,0,0,0,0-.64.56.56,0,0,0-.53-.4,4.69,4.69,0,0,0-1.43.44Z"/><path class="cls-5" d="M191.59,132.8l4.87-2A12.42,12.42,0,0,1,199,130a3.55,3.55,0,0,1,1.72.17,3.51,3.51,0,0,1,1.52,1,5.76,5.76,0,0,1,1,1.68,7,7,0,0,1,.59,2.3,3.16,3.16,0,0,1-.37,1.77,4.32,4.32,0,0,1-1,1.28,8.8,8.8,0,0,1-2.16,1.15l-5.1,2.11a10.56,10.56,0,0,1-3.16.89,3.17,3.17,0,0,1-2.18-.72,5.26,5.26,0,0,1-1.63-2.25,5.69,5.69,0,0,1-.47-2.32,3.82,3.82,0,0,1,.44-1.84,3.61,3.61,0,0,1,1.1-1.2A13.53,13.53,0,0,1,191.59,132.8Zm.28,4.16a6,6,0,0,0-1.42.71.55.55,0,0,0-.07.65.56.56,0,0,0,.53.41,5.19,5.19,0,0,0,1.5-.46l7.13-3a5.78,5.78,0,0,0,1.48-.75.58.58,0,0,0,0-.64.56.56,0,0,0-.53-.4,4.41,4.41,0,0,0-1.43.44Z"/><path class="cls-5" d="M185.86,125.48l1.09-.37a3.78,3.78,0,0,1-1.41-.68,2.93,2.93,0,0,1-.84-1.15,2.67,2.67,0,0,1-.15-1.66,2.08,2.08,0,0,1,.73-1.21,10.44,10.44,0,0,1,2-1l5-2.09a10.35,10.35,0,0,1,2.4-.76,2.07,2.07,0,0,1,1.43.34,2.68,2.68,0,0,1,1,1.28,2.74,2.74,0,0,1,.2,1.38,3.75,3.75,0,0,1-.5,1.45l2.74-1.14,1.51,3.65-13.69,5.65Zm3.06-2.48a6.55,6.55,0,0,0-1.31.64c-.14.12-.15.3-.05.55a.47.47,0,0,0,.46.35,4.88,4.88,0,0,0,1.35-.44l5-2a5.37,5.37,0,0,0,1.31-.66.49.49,0,0,0,.07-.58c-.09-.24-.24-.35-.43-.34a5.6,5.6,0,0,0-1.24.41Z"/><path class="cls-5" d="M184.23,109.61l2.94-1.21a13.36,13.36,0,0,1,2.43-.82,3.66,3.66,0,0,1,1.7.11,3.48,3.48,0,0,1,1.53,1,5.72,5.72,0,0,1,1.1,1.79,7.14,7.14,0,0,1,.58,2.16,3,3,0,0,1-.26,1.64,3.34,3.34,0,0,1-1,1.2,10.72,10.72,0,0,1-2.2,1.14L188,117.86a8.21,8.21,0,0,1-2.76.71,3.24,3.24,0,0,1-2.05-.68,5.08,5.08,0,0,1-1.56-2.16,6.1,6.1,0,0,1-.5-2.26,3.59,3.59,0,0,1,1.33-2.91A8.83,8.83,0,0,1,184.23,109.61Zm.61,4a4.2,4.2,0,0,0-1.12.57.46.46,0,0,0-.07.53.47.47,0,0,0,.42.33,4,4,0,0,0,1.21-.37l5.4-2.23a3.41,3.41,0,0,0,1.06-.57.45.45,0,0,0,.09-.53.47.47,0,0,0-.41-.33,3.34,3.34,0,0,0-1.06.32Z"/><path class="cls-5" d="M175.35,107.47l1.9-.78,1.55,3.75-1.9.79Zm2.63-1.08,12-5,1.55,3.76-12,4.94Z"/><path class="cls-5" d="M175.91,101.37,177,101a2.84,2.84,0,0,1-1.39-.56,3.05,3.05,0,0,1-1.07-2.9,2.14,2.14,0,0,1,.8-1.23,11.09,11.09,0,0,1,2.17-1.09l8.4-3.47,1.5,3.65-8.29,3.42a8.45,8.45,0,0,0-1.47.7.45.45,0,0,0-.09.57.49.49,0,0,0,.51.36,8.58,8.58,0,0,0,1.71-.59l8.1-3.34,1.5,3.64-12,5Z"/><path class="cls-5" d="M170.27,92.22l1.88-.78-.4-1,1.89-.78.41,1L180.46,88a3.81,3.81,0,0,0,1.27-.67c.05-.12,0-.47-.29-1.07l1.94-.8L184,87a10.74,10.74,0,0,1,.63,1.83,2,2,0,0,1-.09,1.13,1.68,1.68,0,0,1-.65.86,15.22,15.22,0,0,1-2.23,1l-6.08,2.51.32.78-1.89.79-.33-.79-1.88.78Z"/><path class="cls-5" d="M293.74,156.82l2.39,1.24-4,7.71-2-1q-3.83-6.33-4.83-7.66a5.9,5.9,0,0,0-1.74-1.73,1.68,1.68,0,0,0-.95-.24.75.75,0,0,0-.59.44.74.74,0,0,0,0,.76,2.92,2.92,0,0,0,1.14.84l1.34.69L282.88,161l-.51-.26a12.12,12.12,0,0,1-1.8-1.09,3.84,3.84,0,0,1-1-1.29,3.42,3.42,0,0,1-.35-1.76,4.87,4.87,0,0,1,.61-2,4.92,4.92,0,0,1,2.67-2.63,4,4,0,0,1,3.18.29,7.12,7.12,0,0,1,2.24,1.93,60,60,0,0,1,3.86,6.5Z"/><path class="cls-5" d="M291.84,143.63l4.68,2.42a12.67,12.67,0,0,1,2.23,1.38,3.74,3.74,0,0,1,1.22,3.22,5.71,5.71,0,0,1-.62,1.87,7.39,7.39,0,0,1-1.37,1.94,3.21,3.21,0,0,1-1.6.85,4.23,4.23,0,0,1-1.66,0,9,9,0,0,1-2.27-.91l-4.9-2.54a10.72,10.72,0,0,1-2.72-1.84,3.2,3.2,0,0,1-.85-2.12,5.19,5.19,0,0,1,.66-2.71,5.53,5.53,0,0,1,1.48-1.85,3.46,3.46,0,0,1,3.31-.79A14,14,0,0,1,291.84,143.63Zm-3,2.89a5.6,5.6,0,0,0-1.45-.62.56.56,0,0,0-.55.36.58.58,0,0,0,0,.67,5.11,5.11,0,0,0,1.32.84l6.85,3.56a5.91,5.91,0,0,0,1.53.64c.21,0,.38-.11.52-.37a.58.58,0,0,0,0-.67,5.15,5.15,0,0,0-1.26-.81Z"/><path class="cls-5" d="M296.77,134.11l4.69,2.43a13.18,13.18,0,0,1,2.23,1.37,3.71,3.71,0,0,1,1,1.43,3.43,3.43,0,0,1,.22,1.79,5.68,5.68,0,0,1-.61,1.87,7.64,7.64,0,0,1-1.38,1.94,3.19,3.19,0,0,1-1.59.85,4.23,4.23,0,0,1-1.66,0,8.87,8.87,0,0,1-2.27-.91l-4.9-2.54a10.36,10.36,0,0,1-2.72-1.84,3.21,3.21,0,0,1-.86-2.12,5.32,5.32,0,0,1,.67-2.71,5.63,5.63,0,0,1,1.47-1.85,3.85,3.85,0,0,1,1.69-.85,3.74,3.74,0,0,1,1.63.06A14,14,0,0,1,296.77,134.11Zm-3,2.89a6,6,0,0,0-1.46-.62.67.67,0,0,0-.51,1,5.13,5.13,0,0,0,1.32.85l6.85,3.55a5.3,5.3,0,0,0,1.53.64c.21,0,.38-.11.52-.37a.58.58,0,0,0,0-.67,5.29,5.29,0,0,0-1.27-.81Z"/><path class="cls-5" d="M298.68,125l1,.58a3.47,3.47,0,0,1-.38-1.5,2.82,2.82,0,0,1,.33-1.39,2.53,2.53,0,0,1,1.17-1.18,2,2,0,0,1,1.39-.22,9.36,9.36,0,0,1,2,.86l4.85,2.51a10.38,10.38,0,0,1,2.13,1.34,2.13,2.13,0,0,1,.67,1.32,2.73,2.73,0,0,1-.33,1.59,3,3,0,0,1-.93,1.05,3.59,3.59,0,0,1-1.43.54l2.64,1.37-1.82,3.5-13.14-6.81Zm3.86.74a7,7,0,0,0-1.33-.6c-.18,0-.33.08-.45.32a.47.47,0,0,0,0,.58,5,5,0,0,0,1.2.75l4.77,2.47a6,6,0,0,0,1.35.58.5.5,0,0,0,.5-.32.43.43,0,0,0,0-.54,5.11,5.11,0,0,0-1.12-.69Z"/><path class="cls-5" d="M309.76,113.53l2.81,1.46a13.23,13.23,0,0,1,2.2,1.33,3.71,3.71,0,0,1,1,1.37,3.41,3.41,0,0,1,.24,1.8,5.93,5.93,0,0,1-.65,2,7.56,7.56,0,0,1-1.28,1.84,3,3,0,0,1-1.42.85,3.38,3.38,0,0,1-1.58,0,10.78,10.78,0,0,1-2.3-1l-2.94-1.53a8.09,8.09,0,0,1-2.33-1.64,3.23,3.23,0,0,1-.8-2,4.94,4.94,0,0,1,.65-2.59,5.83,5.83,0,0,1,1.4-1.84,3.71,3.71,0,0,1,1.59-.83,3.76,3.76,0,0,1,1.49,0A7.75,7.75,0,0,1,309.76,113.53Zm-2.69,3a3.9,3.9,0,0,0-1.16-.48.44.44,0,0,0-.44.28.48.48,0,0,0,0,.54,3.84,3.84,0,0,0,1.06.68l5.2,2.69a3.67,3.67,0,0,0,1.11.45.45.45,0,0,0,.46-.28.46.46,0,0,0,0-.53,3.52,3.52,0,0,0-.92-.6Z"/><path class="cls-5" d="M305.65,105.36l1.83,1-1.87,3.6-1.83-1Zm2.53,1.31,11.51,6-1.87,3.6-11.51-6Z"/><path class="cls-5" d="M310.68,101.85l1,.61a3.06,3.06,0,0,1-.47-1.42,2.84,2.84,0,0,1,.35-1.44,2.64,2.64,0,0,1,1.19-1.25,2.05,2.05,0,0,1,1.45-.18,11.15,11.15,0,0,1,2.24,1l8.06,4.18-1.82,3.5-8-4.13a8.4,8.4,0,0,0-1.49-.67c-.2,0-.36.06-.49.3a.48.48,0,0,0,.06.62,7.86,7.86,0,0,0,1.55.92l7.78,4-1.82,3.5-11.5-6Z"/><path class="cls-5" d="M314,91.64l1.81.94.49-1,1.82,1-.49.94,6.16,3.19a3.45,3.45,0,0,0,1.33.54q.18,0,.63-.9l1.86,1-.74,1.41a11.61,11.61,0,0,1-1,1.66,2,2,0,0,1-.93.66,1.65,1.65,0,0,1-1.07.06,15.6,15.6,0,0,1-2.23-1l-5.85-3-.39.76-1.82-1,.39-.75-1.81-.94Z"/><path class="cls-5" d="M141.27,216.46,142,214l4.68,1.42.78-2.57a3,3,0,0,1-2.58.36,3.18,3.18,0,0,1-2.09-1.59c-.36-.75-.28-1.95.22-3.61l.65-2.16a13.34,13.34,0,0,1,.88-2.31,3.31,3.31,0,0,1,1.08-1.19,3.27,3.27,0,0,1,1.7-.55,7.2,7.2,0,0,1,4.72,1.61,3.23,3.23,0,0,1,1.12,2,8.06,8.06,0,0,1-.48,3.26l-.25.83-3.78-1.15.29-.94a15.37,15.37,0,0,0,.53-2.12.68.68,0,0,0-.52-.83.64.64,0,0,0-.51,0,.62.62,0,0,0-.3.32c-.05.14-.25.73-.58,1.78l-.91,3a2.64,2.64,0,0,0-.17,1.21.66.66,0,0,0,.49.49.68.68,0,0,0,.49,0,.75.75,0,0,0,.33-.27,4.08,4.08,0,0,0,.31-.83l3.74,1.14-2.48,7.57Z"/><path class="cls-5" d="M131.89,208l1.54-5a12.09,12.09,0,0,1,.94-2.45,3.59,3.59,0,0,1,1.22-1.23,3.46,3.46,0,0,1,1.72-.55,5.65,5.65,0,0,1,1.95.26,7.26,7.26,0,0,1,2.16,1,3.24,3.24,0,0,1,1.13,1.41,4.58,4.58,0,0,1,.34,1.63,9,9,0,0,1-.49,2.4l-1.6,5.28a10.53,10.53,0,0,1-1.31,3,3.2,3.2,0,0,1-1.93,1.23,5.3,5.3,0,0,1-2.79-.16,6,6,0,0,1-2.09-1.11,3.84,3.84,0,0,1-1.14-1.51,3.51,3.51,0,0,1-.23-1.61A13.71,13.71,0,0,1,131.89,208Zm3.39,2.42a6.38,6.38,0,0,0-.34,1.54c0,.23.17.39.46.47a.55.55,0,0,0,.65-.15,5.12,5.12,0,0,0,.59-1.45l2.24-7.38a5.64,5.64,0,0,0,.36-1.63c0-.2-.19-.35-.47-.43a.55.55,0,0,0-.65.15,4.7,4.7,0,0,0-.56,1.39Z"/><path class="cls-5" d="M122.6,207.81l.4-1.07a3.55,3.55,0,0,1-1.42.65,2.86,2.86,0,0,1-1.42-.07,2.58,2.58,0,0,1-1.38-.94,2.1,2.1,0,0,1-.47-1.33,10.08,10.08,0,0,1,.48-2.14l1.59-5.22a10.37,10.37,0,0,1,.93-2.35,2.13,2.13,0,0,1,1.17-.89,2.65,2.65,0,0,1,1.62,0,2.82,2.82,0,0,1,1.2.72,3.63,3.63,0,0,1,.8,1.31l.87-2.84,3.77,1.14L126.44,209Zm0-3.93a6.65,6.65,0,0,0-.34,1.42c0,.18.14.31.39.38a.48.48,0,0,0,.57-.13,5.43,5.43,0,0,0,.52-1.32l1.56-5.14a5.08,5.08,0,0,0,.31-1.44c0-.21-.15-.35-.4-.43a.45.45,0,0,0-.53.12,5.48,5.48,0,0,0-.47,1.22Z"/><path class="cls-5" d="M109.29,199l.92-3a13.18,13.18,0,0,1,.91-2.4,3.6,3.6,0,0,1,1.16-1.24,3.42,3.42,0,0,1,1.72-.57,5.86,5.86,0,0,1,2.09.28,7.46,7.46,0,0,1,2,.92,3,3,0,0,1,1.09,1.24,3.46,3.46,0,0,1,.28,1.55,10.3,10.3,0,0,1-.51,2.43l-1,3.18a8.28,8.28,0,0,1-1.19,2.59,3.23,3.23,0,0,1-1.82,1.15,4.86,4.86,0,0,1-2.66-.17,5.74,5.74,0,0,1-2.07-1,3.61,3.61,0,0,1-1.11-1.41,3.57,3.57,0,0,1-.3-1.46A8,8,0,0,1,109.29,199Zm3.49,2.08a4.26,4.26,0,0,0-.26,1.23.54.54,0,0,0,.88.27,3.67,3.67,0,0,0,.48-1.17l1.7-5.6a3.78,3.78,0,0,0,.24-1.18.45.45,0,0,0-.36-.4.47.47,0,0,0-.52.11,3.3,3.3,0,0,0-.42,1Z"/><path class="cls-5" d="M102,204.54l.6-2,3.88,1.18-.6,2Zm.83-2.73,3.76-12.4,3.89,1.18L106.72,203Z"/><path class="cls-5" d="M97.64,200.23l.41-1.12a3,3,0,0,1-1.31.72,3.08,3.08,0,0,1-2.93-1,2.2,2.2,0,0,1-.44-1.4,10.78,10.78,0,0,1,.53-2.37l2.64-8.69,3.77,1.14-2.61,8.59a10,10,0,0,0-.39,1.59q0,.3.39.42a.49.49,0,0,0,.6-.17,9.37,9.37,0,0,0,.63-1.69l2.54-8.39,3.78,1.15-3.77,12.4Z"/><path class="cls-5" d="M87,198.81l.59-2-1-.31.6-2,1,.31,2-6.63a3.64,3.64,0,0,0,.29-1.41c0-.11-.39-.27-1-.45l.61-2,1.52.46a11.55,11.55,0,0,1,1.81.66,2.08,2.08,0,0,1,.82.79,1.79,1.79,0,0,1,.26,1.05,18.29,18.29,0,0,1-.61,2.38L92,196l.82.25-.6,2-.81-.25-.6,2Z"/><path class="cls-5" d="M149.11,275.79l3.8-1.56.55,1.32a7.21,7.21,0,0,0,.76,1.53.52.52,0,0,0,.64.1.5.5,0,0,0,.37-.47,4.8,4.8,0,0,0-.45-1.44l-2.89-7a4.94,4.94,0,0,0-.66-1.25.55.55,0,0,0-.64-.1.6.6,0,0,0-.42.59,4.59,4.59,0,0,0,.42,1.43l.72,1.73.76-.31.92,2.22-4.45,1.83-3.24-7.84,2.39-1,.78.91a2.91,2.91,0,0,1,.56-1.42,3,3,0,0,1,1.26-.92,4,4,0,0,1,2-.27,3.81,3.81,0,0,1,1.75.62,4,4,0,0,1,1.14,1.22,19.05,19.05,0,0,1,1,2.22l1.79,4.34a16.07,16.07,0,0,1,1,3.13,3.38,3.38,0,0,1-.58,2.28,5,5,0,0,1-2.44,1.93,5.62,5.62,0,0,1-3.06.46,3.5,3.5,0,0,1-2.1-1,9.42,9.42,0,0,1-1.47-2.6Z"/><path class="cls-5" d="M145.23,280.61l-.5-1.64a3,3,0,0,1-1.56,2.74l-1.74-4.21a3.34,3.34,0,0,0,1.36-.88,1.26,1.26,0,0,0,.26-1,14.48,14.48,0,0,0-.81-2.27l-2-4.73,3.65-1.51,4.94,12Z"/><path class="cls-5" d="M137.09,278.54l3.42-1.42.33.81a6.08,6.08,0,0,1,.57,2.27,3.23,3.23,0,0,1-.74,1.87,5.16,5.16,0,0,1-2.27,1.61,5.26,5.26,0,0,1-3.06.5,2.77,2.77,0,0,1-1.79-1.14,28,28,0,0,1-1.81-3.85l-2.48-6,3.55-1.46.44,1.06a2.55,2.55,0,0,1,.46-1.32,2.59,2.59,0,0,1,1.13-.84,3.35,3.35,0,0,1,2-.18c.68.13,1.27.81,1.77,2l.4,1a3.12,3.12,0,0,1,.33,2,6.27,6.27,0,0,1-1.63,2c-1,1-1.51,1.55-1.53,1.75a2.78,2.78,0,0,0,.28,1,3.45,3.45,0,0,0,.65,1.17.51.51,0,0,0,.58.09c.25-.1.37-.25.36-.43a5.84,5.84,0,0,0-.42-1.28Zm-1.83-1.17a3,3,0,0,0,.57-1.49,4.94,4.94,0,0,0-.37-1.31,4.21,4.21,0,0,0-.62-1.15.54.54,0,0,0-.6-.07c-.23.1-.35.23-.36.4a3.8,3.8,0,0,0,.36,1.16Z"/><path class="cls-5" d="M129.76,288.86,129,287l-1,.41-.78-1.9,1-.4-2.64-6.41a3.81,3.81,0,0,0-.67-1.27c-.12,0-.47,0-1.07.29l-.8-1.94,1.47-.6a10.13,10.13,0,0,1,1.82-.63,2,2,0,0,1,1.14.09,1.73,1.73,0,0,1,.86.65,16.42,16.42,0,0,1,1,2.23l2.51,6.08.78-.32.79,1.89-.79.33.78,1.88Z"/><path class="cls-5" d="M123.56,289.55l-4.94-12,3.75-1.55,4.95,12Zm1.09,2.64-.79-1.91,3.76-1.55.78,1.91Z"/><path class="cls-5" d="M113.22,289.34l3.24-1.34.26.65a4,4,0,0,0,.53,1,.5.5,0,0,0,.57,0,.55.55,0,0,0,.37-.39,1.05,1.05,0,0,0-.09-.67,3.75,3.75,0,0,0-.41-.78,1.46,1.46,0,0,0-.7-.38,11.39,11.39,0,0,0-1.94-.24,6.23,6.23,0,0,1-2.69-.6,3.66,3.66,0,0,1-1.32-1.79,5.43,5.43,0,0,1-.53-2.36,2.74,2.74,0,0,1,.79-1.67,5.72,5.72,0,0,1,2-1.29,6.4,6.4,0,0,1,2.56-.55,2.82,2.82,0,0,1,1.84.61,5.83,5.83,0,0,1,1.3,2.09l.24.58L116,283.58l-.31-.76a4.48,4.48,0,0,0-.64-1.2.51.51,0,0,0-.6-.09.7.7,0,0,0-.46.42,1.57,1.57,0,0,0,.18.88c.24.57.45.9.64,1a18.51,18.51,0,0,0,2.65.41,5.06,5.06,0,0,1,2.64.83,4.24,4.24,0,0,1,1.07,1.6,4.88,4.88,0,0,1,.5,2.27,2.64,2.64,0,0,1-.86,1.58,5.89,5.89,0,0,1-2,1.24,6.51,6.51,0,0,1-2.15.54,3.56,3.56,0,0,1-1.61-.27,2.31,2.31,0,0,1-.93-.7,7.6,7.6,0,0,1-.64-1.29Z"/><path class="cls-5" d="M107.73,299.17l-1.43-3.46a3.21,3.21,0,0,1-.68,1.2,3.16,3.16,0,0,1-1.1.75,3.4,3.4,0,0,1-1.4.3,2,2,0,0,1-1.11-.31,2.06,2.06,0,0,1-.69-.69,15.28,15.28,0,0,1-.77-1.71l-2.23-5.39a8.8,8.8,0,0,1-.63-2,2.23,2.23,0,0,1,.36-1.46,2.78,2.78,0,0,1,1.35-1.11,2.7,2.7,0,0,1,1.31-.21,3.29,3.29,0,0,1,1.36.42l-.14-1,3.42-1.41,6,14.61Zm-3.6-5.58a3.81,3.81,0,0,0,.62,1.16.48.48,0,0,0,.57.1.46.46,0,0,0,.34-.43,5.19,5.19,0,0,0-.42-1.29L103.11,288a4.22,4.22,0,0,0-.63-1.19.46.46,0,0,0-.55-.09.47.47,0,0,0-.34.46,5.44,5.44,0,0,0,.46,1.39Z"/><path class="cls-5" d="M96.93,300.54l-4.94-12L95.74,287l5,12ZM98,303.18l-.79-1.91,3.76-1.55.78,1.91Z"/><path class="cls-5" d="M93,305.27l-6-14.62,3.76-1.55,6,14.62Z"/><path class="cls-5" d="M87.89,307.36l-6-14.62,3.75-1.55,6,14.62Z"/><path class="cls-5" d="M74.67,302.47l4.73-2-1.07-2.59a3.28,3.28,0,0,0-.55-1,.51.51,0,0,0-.55-.05.61.61,0,0,0-.43.54,3.5,3.5,0,0,0,.36,1.26l.65,1.58-3.46,1.43-.36-.88a8.29,8.29,0,0,1-.57-1.77,3.88,3.88,0,0,1,.13-1.54,3.51,3.51,0,0,1,.89-1.55,5.39,5.39,0,0,1,1.84-1.16,6.19,6.19,0,0,1,2.18-.51,3.44,3.44,0,0,1,3,1.35,8.54,8.54,0,0,1,1,2l1.45,3.49a6.34,6.34,0,0,1,.59,2.65,3.13,3.13,0,0,1-.81,2,5.37,5.37,0,0,1-2,1.4,5.46,5.46,0,0,1-2.78.46,3.44,3.44,0,0,1-2-1,7.67,7.67,0,0,1-1.52-2.53Zm4.46.44.37.87a4.57,4.57,0,0,0,.59,1.16.42.42,0,0,0,.52.11c.25-.11.38-.25.37-.43a5.1,5.1,0,0,0-.42-1.28l-.36-.87Z"/><path class="cls-5" d="M72.85,312.35l-.77-1.89-1,.41-.78-1.9,1-.41-2.64-6.41a3.7,3.7,0,0,0-.67-1.26c-.12-.06-.47,0-1.07.28l-.8-1.93,1.48-.61a11.71,11.71,0,0,1,1.82-.63,2,2,0,0,1,1.13.09,1.74,1.74,0,0,1,.86.65,16.4,16.4,0,0,1,1,2.23L75,307.05l.79-.32.78,1.9-.79.32.78,1.89Z"/><path class="cls-5" d="M214.68,335.61l-14-7.27,1.82-3.51,7.52,3.91a15.19,15.19,0,0,0,2,.93.78.78,0,0,0,.72-.17,4.57,4.57,0,0,0,1-1.47l.18-.35,1.64.85a7.17,7.17,0,0,0,.25,5Z"/><path class="cls-5" d="M204.94,342.77l-4.68-2.42A12.26,12.26,0,0,1,198,339a3.74,3.74,0,0,1-1-1.43,3.54,3.54,0,0,1-.22-1.79,5.92,5.92,0,0,1,.61-1.87A7.39,7.39,0,0,1,198.8,332a3.2,3.2,0,0,1,1.59-.86,4.24,4.24,0,0,1,1.66,0,9.26,9.26,0,0,1,2.27.91l4.9,2.54a10.36,10.36,0,0,1,2.72,1.84,3.16,3.16,0,0,1,.86,2.12,5.3,5.3,0,0,1-.67,2.71,5.78,5.78,0,0,1-1.47,1.86,4,4,0,0,1-1.69.85,3.75,3.75,0,0,1-1.63-.07A13.25,13.25,0,0,1,204.94,342.77Zm3-2.89a5.61,5.61,0,0,0,1.46.62.52.52,0,0,0,.54-.36.55.55,0,0,0,0-.67,4.75,4.75,0,0,0-1.32-.84l-6.84-3.55a5.6,5.6,0,0,0-1.54-.65.54.54,0,0,0-.51.37.55.55,0,0,0,0,.67,4.94,4.94,0,0,0,1.26.81Z"/><path class="cls-5" d="M200,352.29l-4.68-2.42a13.31,13.31,0,0,1-2.23-1.38,3.53,3.53,0,0,1-1-1.43,3.44,3.44,0,0,1-.23-1.79,5.71,5.71,0,0,1,.62-1.87,7.39,7.39,0,0,1,1.37-1.94,3.17,3.17,0,0,1,1.6-.85,4.23,4.23,0,0,1,1.66,0,9,9,0,0,1,2.27.91l4.9,2.54a10.72,10.72,0,0,1,2.72,1.84,3.2,3.2,0,0,1,.85,2.12,5.19,5.19,0,0,1-.66,2.71,5.53,5.53,0,0,1-1.48,1.85,3.46,3.46,0,0,1-3.31.79A14,14,0,0,1,200,352.29Zm3-2.89a6,6,0,0,0,1.45.62.56.56,0,0,0,.55-.36.58.58,0,0,0,0-.67,5.11,5.11,0,0,0-1.32-.84l-6.85-3.56a5.91,5.91,0,0,0-1.53-.64c-.21,0-.38.11-.52.37a.58.58,0,0,0,0,.67,5.15,5.15,0,0,0,1.26.81Z"/><path class="cls-5" d="M195.07,361.81l-4.69-2.43a13.18,13.18,0,0,1-2.23-1.37,3.82,3.82,0,0,1-1-1.43,3.43,3.43,0,0,1-.22-1.79,5.68,5.68,0,0,1,.61-1.87,7.23,7.23,0,0,1,1.38-1.94,3.19,3.19,0,0,1,1.59-.85,4.23,4.23,0,0,1,1.66,0,8.87,8.87,0,0,1,2.27.91l4.9,2.54a10.36,10.36,0,0,1,2.72,1.84,3.21,3.21,0,0,1,.86,2.12,5.32,5.32,0,0,1-.67,2.71,5.63,5.63,0,0,1-1.47,1.85,3.9,3.9,0,0,1-1.69.85,3.74,3.74,0,0,1-1.63-.06A14,14,0,0,1,195.07,361.81Zm3-2.89a6,6,0,0,0,1.46.62.67.67,0,0,0,.51-1,5.13,5.13,0,0,0-1.32-.85l-6.85-3.55a5.3,5.3,0,0,0-1.53-.64c-.21,0-.38.11-.52.37a.58.58,0,0,0,0,.67,5.29,5.29,0,0,0,1.27.81Z"/><path class="cls-5" d="M193.16,370.91l-1-.58a3.47,3.47,0,0,1,.38,1.5,2.82,2.82,0,0,1-.33,1.39,2.53,2.53,0,0,1-1.17,1.18,2,2,0,0,1-1.39.22,9.36,9.36,0,0,1-2-.86l-4.85-2.51a10.38,10.38,0,0,1-2.13-1.34,2.13,2.13,0,0,1-.67-1.32,2.73,2.73,0,0,1,.33-1.59,3,3,0,0,1,.93-1.05,3.59,3.59,0,0,1,1.43-.54L180.05,364l1.82-3.5L195,367.35Zm-3.86-.74a7,7,0,0,0,1.33.6c.18,0,.33-.08.45-.32a.47.47,0,0,0,0-.58,5,5,0,0,0-1.2-.75l-4.77-2.48a5.61,5.61,0,0,0-1.35-.57.5.5,0,0,0-.5.32.43.43,0,0,0,0,.54,5.11,5.11,0,0,0,1.12.69Z"/><path class="cls-5" d="M182.08,382.39l-2.81-1.46a13.23,13.23,0,0,1-2.2-1.33,3.71,3.71,0,0,1-1-1.37,3.41,3.41,0,0,1-.24-1.8,5.93,5.93,0,0,1,.65-2,7.56,7.56,0,0,1,1.28-1.84,3,3,0,0,1,1.42-.85,3.38,3.38,0,0,1,1.58,0,10.78,10.78,0,0,1,2.3.95l2.94,1.53a8.09,8.09,0,0,1,2.33,1.64,3.23,3.23,0,0,1,.8,2,4.94,4.94,0,0,1-.65,2.59,5.83,5.83,0,0,1-1.4,1.84,3.71,3.71,0,0,1-1.59.83,3.76,3.76,0,0,1-1.49,0A7.75,7.75,0,0,1,182.08,382.39Zm2.69-3.05a3.9,3.9,0,0,0,1.16.48.44.44,0,0,0,.44-.28.48.48,0,0,0,0-.54,3.84,3.84,0,0,0-1.06-.68l-5.2-2.69a3.67,3.67,0,0,0-1.11-.45.45.45,0,0,0-.46.28.46.46,0,0,0,0,.53,3.52,3.52,0,0,0,.92.6Z"/><path class="cls-5" d="M183.66,389.25l-11.51-6,1.87-3.6,11.5,6Zm2.53,1.31-1.83-.95,1.87-3.6,1.83.95Z"/><path class="cls-5" d="M181.16,394.07l-1-.61a3.06,3.06,0,0,1,.47,1.42,2.84,2.84,0,0,1-.35,1.44,2.64,2.64,0,0,1-1.19,1.25,2.05,2.05,0,0,1-1.45.18,10.91,10.91,0,0,1-2.24-.95l-8.06-4.18,1.82-3.5,8,4.13a8.4,8.4,0,0,0,1.49.67c.2,0,.36-.06.49-.3A.49.49,0,0,0,179,393a7.86,7.86,0,0,0-1.55-.92l-7.78-4,1.82-3.5,11.5,6Z"/><path class="cls-5" d="M177.81,404.28l-1.81-.94-.49,1-1.82-1,.49-.94L168,399.21a3.45,3.45,0,0,0-1.33-.54c-.12,0-.34.33-.63.9l-1.86-1,.74-1.41a11.61,11.61,0,0,1,1-1.66,2,2,0,0,1,.93-.66,1.65,1.65,0,0,1,1.07-.06,15.6,15.6,0,0,1,2.23,1l5.85,3,.39-.76,1.82.95-.39.75,1.81.94Z"/><path class="cls-5" d="M289.76,335.59l-2.34,1L285.56,332l-2.49,1a3,3,0,0,1,1.91,1.77,3.2,3.2,0,0,1,.09,2.63c-.35.74-1.32,1.45-2.92,2.11l-2.09.86a12.93,12.93,0,0,1-2.34.79,3.53,3.53,0,0,1-1.61-.08,3.4,3.4,0,0,1-1.51-1,6.56,6.56,0,0,1-1.2-2,6.38,6.38,0,0,1-.54-2.68,3.28,3.28,0,0,1,.84-2.13,8.2,8.2,0,0,1,2.83-1.7l.8-.33,1.5,3.65-.91.38a14.75,14.75,0,0,0-2,.93.73.73,0,0,0,0,1.3.61.61,0,0,0,.44,0c.14,0,.72-.27,1.74-.68l2.9-1.19a2.69,2.69,0,0,0,1-.64.63.63,0,0,0,.07-.69.65.65,0,0,0-.33-.36.73.73,0,0,0-.42-.08,4.23,4.23,0,0,0-.84.28l-1.49-3.61,7.43-2.88Z"/><path class="cls-5" d="M289.17,348.2l-4.87,2a12.24,12.24,0,0,1-2.5.81,3.72,3.72,0,0,1-3.24-1.14,6,6,0,0,1-1-1.68,7,7,0,0,1-.59-2.3,3.16,3.16,0,0,1,.37-1.77,4.34,4.34,0,0,1,1.05-1.29,8.84,8.84,0,0,1,2.16-1.14l5.1-2.11a10.56,10.56,0,0,1,3.16-.89,3.21,3.21,0,0,1,2.18.71,5.46,5.46,0,0,1,1.64,2.26,5.64,5.64,0,0,1,.46,2.32,3.82,3.82,0,0,1-.44,1.84,3.61,3.61,0,0,1-1.1,1.2A13.53,13.53,0,0,1,289.17,348.2Zm-.28-4.16a6.38,6.38,0,0,0,1.42-.71.54.54,0,0,0,.07-.65.56.56,0,0,0-.53-.41,5.19,5.19,0,0,0-1.5.46l-7.13,2.95a5.78,5.78,0,0,0-1.48.75.57.57,0,0,0-.05.64.56.56,0,0,0,.53.4,4.69,4.69,0,0,0,1.43-.44Z"/><path class="cls-5" d="M293.26,358.11l-4.87,2a12.42,12.42,0,0,1-2.5.82,3.67,3.67,0,0,1-1.72-.17,3.51,3.51,0,0,1-1.52-1,5.76,5.76,0,0,1-1-1.68,7,7,0,0,1-.59-2.3,3.16,3.16,0,0,1,.37-1.77,4.45,4.45,0,0,1,1.05-1.28,8.8,8.8,0,0,1,2.16-1.15l5.1-2.1a10.34,10.34,0,0,1,3.16-.9,3.17,3.17,0,0,1,2.18.72,5.36,5.36,0,0,1,1.64,2.25,5.68,5.68,0,0,1,.46,2.32,3.82,3.82,0,0,1-.44,1.84,3.61,3.61,0,0,1-1.1,1.2A13.53,13.53,0,0,1,293.26,358.11ZM293,354a6,6,0,0,0,1.42-.71.54.54,0,0,0,.07-.65.56.56,0,0,0-.53-.41,5,5,0,0,0-1.5.47l-7.13,2.94a5.78,5.78,0,0,0-1.48.75.56.56,0,0,0,0,.64.55.55,0,0,0,.52.41,4.94,4.94,0,0,0,1.44-.45Z"/><path class="cls-5" d="M299,365.43l-1.09.38a3.63,3.63,0,0,1,1.41.67,2.9,2.9,0,0,1,.84,1.16,2.5,2.5,0,0,1,.15,1.65,2.08,2.08,0,0,1-.73,1.21,10.44,10.44,0,0,1-2,1l-5.05,2.09a10.35,10.35,0,0,1-2.4.76,2.09,2.09,0,0,1-1.43-.34,2.68,2.68,0,0,1-1-1.28,2.86,2.86,0,0,1-.2-1.38,3.7,3.7,0,0,1,.5-1.45L285.28,371l-1.51-3.65,13.69-5.65Zm-3.06,2.48a6.55,6.55,0,0,0,1.31-.64c.14-.12.16-.3.05-.55a.47.47,0,0,0-.46-.35,5.28,5.28,0,0,0-1.35.44l-5,2a5.89,5.89,0,0,0-1.31.67.49.49,0,0,0-.07.58c.09.24.24.35.43.34a5.44,5.44,0,0,0,1.24-.41Z"/><path class="cls-5" d="M300.62,381.3l-2.94,1.22a14,14,0,0,1-2.43.81,3.66,3.66,0,0,1-1.7-.11,3.48,3.48,0,0,1-1.53-1,5.91,5.91,0,0,1-1.1-1.79,7.14,7.14,0,0,1-.58-2.16,3,3,0,0,1,.26-1.64,3.54,3.54,0,0,1,1-1.2,10.58,10.58,0,0,1,2.21-1.14l3.06-1.27a8,8,0,0,1,2.76-.71,3.24,3.24,0,0,1,2,.68,5,5,0,0,1,1.56,2.16,6.1,6.1,0,0,1,.5,2.26,3.59,3.59,0,0,1-1.33,2.91A8.56,8.56,0,0,1,300.62,381.3Zm-.61-4a4.2,4.2,0,0,0,1.12-.57.44.44,0,0,0,.07-.53.46.46,0,0,0-.42-.33,4,4,0,0,0-1.21.37l-5.4,2.23a3.41,3.41,0,0,0-1.06.57.45.45,0,0,0-.09.53.47.47,0,0,0,.42.33,3.38,3.38,0,0,0,1.05-.32Z"/><path class="cls-5" d="M306.87,384.52l-12,5-1.55-3.76,12-4.94Zm2.63-1.08-1.9.78-1.55-3.75,1.9-.79Z"/><path class="cls-5" d="M308.94,389.54l-1.13.4a2.94,2.94,0,0,1,1.39.56,3.05,3.05,0,0,1,1.07,2.9,2.14,2.14,0,0,1-.8,1.23,11.57,11.57,0,0,1-2.17,1.1l-8.4,3.46-1.5-3.65,8.29-3.42a9.17,9.17,0,0,0,1.48-.7.46.46,0,0,0,.08-.57.49.49,0,0,0-.51-.36,8.58,8.58,0,0,0-1.71.59l-8.1,3.34-1.5-3.64,12-4.95Z"/><path class="cls-5" d="M314.58,398.69l-1.88.78.4,1-1.89.78-.41-1-6.41,2.64a3.81,3.81,0,0,0-1.27.67,2.18,2.18,0,0,0,.29,1.07l-1.93.8-.61-1.47a12.08,12.08,0,0,1-.63-1.82,2,2,0,0,1,.09-1.14,1.68,1.68,0,0,1,.65-.86,17.09,17.09,0,0,1,2.23-1l6.08-2.51-.32-.78,1.89-.78.33.78,1.88-.78Z"/><circle class="cls-5" cx="246.25" cy="246.75" r="21.64"/><path class="cls-5" d="M246.25,269.39a22.64,22.64,0,1,1,22.64-22.64A22.66,22.66,0,0,1,246.25,269.39Zm0-43.28a20.64,20.64,0,1,0,20.64,20.64A20.66,20.66,0,0,0,246.25,226.11Z"/></svg>